<svg xmlns="http://www.w3.org/2000/svg" width="1365.333" height="1365.333" viewBox="0 0 1024 1024"><path d="M735.3 345.6c-9.2 2-21 6.8-28.3 11.6-13.7 9-29.7 28.4-38.7 46.9-10.8 22.1-17.3 53.9-16 78.5 1.6 30.5 7.9 54.2 19.8 75l4.3 7.4h7.4c4 0 7.2-.3 7-.8-.2-.4-1.7-3.4-3.5-6.8-11.9-22.8-18.7-61.6-16.4-93.6 2.3-31.6 7.3-51.4 18.9-74.3 4.9-9.8 6.6-12.1 15.6-21 8.4-8.4 11.5-10.8 18.6-14.2 20.3-9.9 39.3-9.5 60.3 1.4 5.3 2.7 9.8 6.2 16.8 13.3 10.7 10.6 11.7 12.3 16.4 25.8 1.8 5.2 3.7 9.8 4.2 10.3s2.5-.7 4.7-3l3.8-3.8-2.7-5.4c-5.7-11.2-22.9-29.4-34.1-36.2-18.4-11.1-39.7-15.2-58.1-11.1"/><path d="M297.5 347.1c-.8 1.2-.8 1.2 3 2.5 3 .9 3 1 3.7 10.4.8 11.5 1 151.2.1 155.7l-.5 3.3h-44.4c-38.8 0-44.4.2-44.4 1.5s5.6 1.5 44.5 1.5H304v38.5c0 41.9.3 39.7-5.5 43.1-3.6 2-.6 3.4 7.6 3.4 9.1 0 9.9-.9 4.4-5.3l-3.5-2.8V522h40.9l1.1 3.7c.9 3.5 9.6 38.5 17.4 70.6 1.7 7 3.5 12.8 4.1 13 .5.1 1.3-1.6 1.9-3.8.5-2.2 3.5-13.2 6.6-24.5 3.2-11.3 7.7-29.2 10-39.8l4.4-19.2H434v76.3l-3.5 3.3c-1.9 1.8-3.5 3.5-3.5 3.8s6.3.6 14 .6 14-.2 14-.3c0-.2-1.8-2.3-4-4.6l-4-4.2V522h45l.2 41.7.3 41.8 20.8.3c11.4.1 20.7-.1 20.7-.6s-1.2-1.4-2.6-2.1l-2.6-1.1.3-40.5.3-40.5h9.3l18 21.2c25.6 30.2 43.1 51.6 45.9 56 2.5 3.9 2.4 5.8-.2 5.8-2.2 0-1.6 1.7.9 2.4 2.9.8 49.2.8 151.4-.1l83.3-.6v-3.8c0-2.1-.4-4.1-1-4.4-.5-.3-1-2.9-1-5.7 0-5 0-5-3-4.6-3 .5-3 .4-3-4.4 0-3.3.6-5.8 2-7.6 1.9-2.6 6-23.9 6-31.3 0-5.7-3-3-5.9 5.2-2.5 6.9-8.5 18.2-12.5 23.4-1.4 1.9-1.5 1.4-1.6-6.1 0-6.1-.4-8.3-1.4-8.7-1.9-.8-2.6.1-2.6 3.4 0 1.5-.7 2.9-1.5 3.3-1.2.4-1.5 2.4-1.5 9.4 0 6.4-.4 9.3-1.4 10.1-1.1 1-1.4-1-1.8-12.4-.2-8.6-.8-13.9-1.5-14.3-.6-.4-1.3-1.8-1.4-3.2-.2-1.4-1.1-2.5-1.9-2.5-1.2 0-1.4 1.2-1.1 7 .3 3.8.5 12.4.5 19 .1 10.6-.1 12-1.6 12.3-1.6.3-1.8-.7-1.8-11.2 0-10.9-.1-11.6-2-11.6-1.7 0-2-.7-2-4 0-2.2-.4-4-1-4-.5 0-1 2-1 4.5 0 3.7-.4 4.7-2.1 5.3-1.9.8-2 1.6-2 14.5 0 11.3-.3 13.7-1.5 13.7s-1.4-3.2-1.4-20c0-18.7-.1-20.1-2-22-1.1-1.1-2-3.1-2-4.4 0-1.5-.7-2.7-1.7-3-1.5-.5-1.8-1.8-1.8-7.8 0-4-.4-7.4-1-7.6-1.4-.3-2.2 16-2.4 45.1-.1 18.6-.4 23.8-1.3 23.5-1-.4-1.4-6.6-1.9-24.6-.3-13.3-.8-24.5-1.2-24.8-.4-.4-.7 1.3-.7 3.7-.1 5.5-1.8 7.9-5.8 7.9-3 0-3.1-.1-3.5-5.3-.2-2.8-.3-1.4 0 3.3.5 11.2-.8 37-1.9 37-.4 0-.8-14.9-.8-33 0-25.7-.3-33-1.2-33.1-2-.2-5.1-.2-7-.1-1.7.2-1.8 2.5-1.8 33.7 0 21.7-.4 33.5-1 33.5s-1-9-1-25c0-21.6-.2-25-1.5-25s-1.5 2-1.5 12.2c0 15.3-1 28.8-2.1 28.8-.5 0-.9-7.4-.9-16.5 0-13.5-.3-16.5-1.4-16.5s-1.6 2.8-2.1 12.5c-.4 6.9-.5 14.3-.1 16.4.6 4.2.1 5.2-2.1 4.4-1.2-.5-1.3-6.1-.8-41.7.6-39.9.6-41.2-1.3-43.5l-2-2.5-.7 5.8c-.5 3.7-1.3 6-2.2 6.3-1.4.5-1.5 5.5-.9 39.8.4 21.5.4 39.9 0 40.8-1.8 4.8-2.4-.3-2.4-20.6 0-12.6-.4-22.8-1-23.7-.8-1.2-1-.9-1 1.3 0 2-.6 3-2 3.4-1.9.5-2 1.4-2 18.4 0 11.3-.4 17.9-1 17.9-.7 0-1-14.2-1-40.5V511l-2.4-1.2c-1.4-.6-3.2-.7-4.3-.2-1.5.7-1.4.8 1 1.2 1.5.2 2.7.9 2.7 1.7s-1.2 1.5-2.7 1.7c-2.8.3-2.8.4-3.1 8.1-.3 7-.1 7.8 1.5 7.5 1.7-.3 1.8 1.4 2 28.2.2 20 0 28.1-.8 27-.6-1-.9-10.5-.8-26.5.1-13.8.1-25.6 0-26.3 0-.6-1.4-1.2-3.1-1.2-3 0-3 .1-3 5.4 0 3.9-.4 5.5-1.5 6-1.3.4-1.5 3.8-1.5 21.5 0 18.4-.2 21-1.6 21.5-2.4.9-3.2-.3-1.1-1.8 2.4-1.8 2.2-8.6-.4-13l-2.1-3.6h-30.7c-30 0-30.8.1-32.7 2.1-1.6 1.8-2 4.3-2.5 17.2-.4 8.4-.3 15.6.1 16.1.5.4 2.9.7 5.4.5 2.7-.3 4.7 0 5 .7.7 1.7-10.6.5-13.4-1.5-1.4-1-7.2-7.4-12.9-14.2-13.9-16.6-63.8-75.2-72.8-85.5l-7.3-8.3 26.3-39.8c14.5-21.9 35.2-53.4 46.1-70 19.5-29.8 23.8-35.3 27.8-35.3 1.1 0 1.8-.5 1.6-1.3-.5-1.4-15.8-2.3-15.8-.9 0 .5.9 1.6 2 2.3 2 1.4 2 1.4.2 4.9-1.1 1.9-11.6 18.1-23.4 36s-30.8 46.9-42.3 64.5c-11.4 17.6-21.4 32.7-22.1 33.5-1.2 1.2-1.4-1.2-1.5-15.5 0-9.4-.4-17.9-.9-19-.7-1.7-.9-1.4-.9 1.3-.1 2.1-.5 3.1-1.2 2.7-.6-.5-1-4.2-.9-9.9.2-11.8.1-12.7-1.5-9.2l-1.2 3-2.3-5c-1.5-3.2-2.5-8-2.9-13.9-.5-6-1.5-10.7-3-14-3.7-8-5.3-14.4-6.1-24l-.7-9-.2 10.1c-.1 11.2-1.8 18.2-6.2 26.1-2.5 4.6-2.9 6.3-2.9 13.1s-.4 8.8-3 13.8l-3 5.9v-4.2c0-2.3-.4-4.4-.8-4.7-.5-.3-.9 4.2-.8 10 .1 9-.2 10.7-1.6 11.8-1.6 1.2-1.8 3.5-1.8 22.5 0 17.6.3 21.5 1.5 22.7 1.5 1.6 2 9.8.9 14.1-.6 2.3-.6 2.3-23.1 2.3h-22.4l.5-82.5c.4-53.1.9-83.2 1.6-84.4.5-1.1 2.3-2.2 4-2.6 5.9-1.3 1.7-2.5-8.8-2.5h-10.7l-3.3 13.3c-3.6 14.3-12.5 51.1-22.3 91.7-3.4 14-7.8 32.5-9.9 41s-4.1 16.8-4.4 18.3c-.4 1.5-1.1 2.5-1.7 2.2-1.3-.9-.3-18.3 1.2-20.2 1-1.1.9-2.5-.4-6.6-2.9-9.3-3-10.8-.8-11.4 2.1-.5 2.6-1.5 3.6-7.5.5-2.3 1.6-4.3 3.2-5.3 1.7-1.2 2.2-2.2 1.8-3.6-.4-1.1-.1-2.6.5-3.4 1.7-2.1.8-3.8-3.3-6-3.5-1.8-3.7-1.8-5.6-.1s-2 1.7-2.9-.1c-.5-1-1.2-3.4-1.6-5.3-.3-1.9-1.5-4.2-2.5-5-1.4-1.1-2-3.1-2.3-7l-.3-5.5 3.3-.3c4.2-.4 4.1-2.2-.2-2.2-1.8 0-3.9-.7-4.6-1.5-1.1-1.3-.9-2 1.1-4.2l2.4-2.6-3.7 2.2-3.7 2.2-1.5-3.3c-1.1-2.4-1.5-2.8-1.5-1.3-.1 1.1-.5 2.6-1 3.4-.8 1.2-1.3 1.2-3.5-.2-3.4-2.3-4.7-2.1-1.7.2 2.7 2.1 2.1 4.1-1.3 4.1-2 0-2.6-.9-4-6.3-2.6-9.4-3.5-20-1.8-21.2 1.1-.9 1.1-1.6.1-3.7-1-2.2-.9-3.1.3-5 1.9-3 1.3-4.7-1.5-4.1-3.3.8-5.9 3.5-5.4 5.5.3.9 0 1.9-.6 2.1-.7.2-.4 3.6.7 10.3 3.3 19.2 3.8 25.2 2.8 31.2-1 5.4-.9 5.9 1.4 8.3 1.3 1.4 2.4 3.3 2.4 4.2s.7 3.5 1.6 5.7c1.6 3.9 1.5 4.3-.6 9.1l-2.1 5.1 2.1 2.3c2 2.2 2 2.4.4 6.4-.9 2.4-1.3 4.8-.9 5.8 2.8 6.3 3.4 24.1 1.2 31.3-1.3 4.3-1.4 4.4-2.5 2.3-.7-1.2-2.1-6.2-3.1-11-1.1-4.8-4.4-18.9-7.5-31.3s-11.1-44.7-17.9-71.9c-6.7-27.2-12.8-50-13.5-50.8-1.7-1.6-19.7-1.9-20.7-.2m17 38.4c6.1 23.4 32.5 131.1 32.5 132.8 0 .4-9 .7-20 .7h-20l.1-81.3c.1-72.2.3-80.5 1.5-75.2.8 3.3 3.5 13.6 5.9 23m119.8 54.8-.6 78.7H394l.6-2.8c.4-1.5 1.7-6.1 2.9-10.2 3.7-12.3 30.5-121.3 33.1-134.5 2-10.6 2.4-11.9 3.5-10.8.5.5.6 33.4.2 79.6M505 425c0 2.1-.4 4.2-1 4.5-.6.4-1-1.3-1-4.5s.4-4.9 1-4.5c.6.3 1 2.4 1 4.5m5 .1c0 2.8-.4 3.9-1.5 3.9s-1.5-1.1-1.5-3.8c0-2.1.3-4.2.6-4.5 1.4-1.3 2.4.6 2.4 4.4m4.8.3c.3 4.1.1 4.7-1.5 4.4-1.9-.3-3-5.5-1.9-8.5 1.2-2.9 3.1-.6 3.4 4.1m2.9 1.8c-.2 1.3-.4.3-.4-2.2s.2-3.5.4-2.3c.2 1.3.2 3.3 0 4.5m-147.5 2.2c.5 2.3-.6 5.6-1.5 4.6-.2-.3-.9-2-1.5-3.8-1-2.8-.9-3.2.7-3.2 1.2 0 2 .9 2.3 2.4M499 454.5c0 1.9-.4 3.5-1 3.5-1.1 0-1.4-5.3-.3-6.3 1.1-1.2 1.3-.8 1.3 2.8m4 0c0 1.9-.4 3.5-1 3.5-1.1 0-1.4-5.3-.3-6.3 1.1-1.2 1.3-.8 1.3 2.8m22 .5c0 2.2-.4 4-1 4-.5 0-1-1.8-1-4s.5-4 1-4c.6 0 1 1.8 1 4m-17.2.2c-.3 3.4-2 4.2-2.6 1.3-.5-2.2.5-4.5 1.8-4.5.7 0 1 1.4.8 3.2m4.2.3c0 1.9-.4 3.5-1 3.5-.5 0-1-1.6-1-3.5s.5-3.5 1-3.5c.6 0 1 1.6 1 3.5m5 .6c0 3.1-1.4 3.9-2.4 1.3-.8-2.1.3-5.6 1.5-4.9.5.4.9 1.9.9 3.6m4-.6c0 1.9-.4 3.5-1 3.5-.5 0-1-1.6-1-3.5s.5-3.5 1-3.5c.6 0 1 1.6 1 3.5m-13.5 8.2c-12.4 6.5-14 20.3-3.1 26 2.5 1.3 2.7 1.7 1.3 2.4-.9.5-3.4.7-5.6.3l-4-.6-.3-13.7c-.2-7.5-.1-14.2.1-14.9.2-.8 2.6-1.2 7.5-1.2 7.1.1 7.1.1 4.1 1.7m18.5 13.2c0 8.3-.3 15.2-.7 15.4-.5.2-4.4.1-8.8-.2l-8-.7 4.1-1.2c8.4-2.4 11.5-7.2 10.6-16-.4-3.6-1-4.7-4.8-7.4-2.4-1.7-4.1-3.5-3.8-3.9.3-.5 3-.9 6-.9h5.4zm-7.4-7.5c1.9 1.9 3.4 4.4 3.4 5.5 0 3.3-2.5 8.3-5.4 11.1-3.2 2.9-9.3 3.1-13 .3-2.4-1.8-4.8-7.4-4.1-9.6.2-.7.6-2.4.9-3.9 1-4.5 4.3-6.8 9.9-6.8 4.2 0 5.4.5 8.3 3.4M500 498.5c0 2.7-1.5 4.1-2.5 2.5s.4-6.2 1.5-5.5c.6.3 1 1.7 1 3m4 .1c0 1.3-.4 2.4-1 2.4-.5 0-1-1.4-1-3.1s.4-2.8 1-2.4c.6.3 1 1.7 1 3.1m10 0c0 1.3-.6 2.4-1.3 2.4q-1.35 0-.9-3c.5-3.5 2.2-3 2.2.6m4.8.5c-.1 1.3-.7 2.3-1.3 2.2-1.3-.3-1.8-3-1.1-5 1-2.4 2.9-.1 2.4 2.8m5.7-.5c0 1.9-.5 2.9-1.5 2.9-1.6 0-2.5-2.8-1.6-5.1 1-2.5 3.1-1 3.1 2.2m-15.5-.1c0 2.5-1.4 3.4-2.4 1.6-.8-1.2.3-4.1 1.5-4.1.5 0 .9 1.1.9 2.5m-2 22.1c0 10-.3 12.4-1.4 12.4s-1.6-2.5-2.1-10.5c-.8-11.7-.3-15.7 2-14.9 1.2.5 1.5 3 1.5 13m-6.3 5.6c-.2 3.5-.3.7-.3-6.2s.1-9.7.3-6.3c.2 3.5.2 9.1 0 12.5m11.9-6.6c.1 11.2-.2 13.4-1.7 13.4-.5 0-.9-5.7-.9-12.6 0-9.6.3-12.5 1.3-12.1.8.3 1.2 3.5 1.3 11.3m4.2 1.1-.1 12.8-.7-11c-.5-10.1-.4-14.5.6-14.5.2 0 .3 5.7.2 12.7m5.2-.1c0 9.6-.3 12.5-1.2 12.2s-1.4-4-1.6-12.6c-.2-10.4 0-12.2 1.3-12.2s1.5 2 1.5 12.6m12-4.1c1.1 1.3.8 1.5-1.8 1.5-2.4 0-3-.4-2.6-1.5.4-.8 1.2-1.5 1.9-1.5s1.8.7 2.5 1.5m-144 6.2c0 1.8-12.3 52.9-12.9 53.6-.4.4-2-4.1-3.6-10-6.1-23.2-9.2-36-9.9-40.1l-.6-4.2h13.5c7.4 0 13.5.3 13.5.7M522.5 537c-.4.6-5.5 1-12.1 1-6.9 0-11.4-.4-11.4-1s4.7-1 12.1-1c7.7 0 11.8.4 11.4 1m184.4 11.7c-.1 7.8-.6 7.4-1.2-1-.2-3.1 0-5.7.5-5.7.4 0 .8 3 .7 6.7m-206.2 12.5c-.2 3.5-.3.7-.3-6.2s.1-9.7.3-6.3c.2 3.5.2 9.1 0 12.5m6.3-6.2c0 11.4-.1 12-2 12-2 0-2.1-.4-1.6-11.8.3-6.4.5-11.8.5-12 .1-.1.8-.2 1.6-.2 1.3 0 1.5 2 1.5 12m10 0c0 7.1-.4 12-1 12-.9 0-1.2-21.6-.3-23.3 1.1-1.9 1.3.1 1.3 11.3m5.5-9.8c.3 1.3.5 6.6.3 11.8-.3 8.1-.6 9.5-2 9.8-1.6.3-1.8-.8-1.8-11.7 0-10 .3-12.1 1.5-12.1.8 0 1.7 1 2 2.2m-10 2c1 5.6.1 20.1-1.2 20.6-1 .3-1.3-2.5-1.3-11.7 0-11.7 1.2-15.9 2.5-8.9m128.2 23.9c2.2 2.2.2 3.9-4.3 3.9-5.1 0-6.1-2.2-1.6-3.8 3.7-1.4 4.6-1.4 5.9-.1m11.3 1.4c0 2.3-.4 2.5-4.3 2.5-5 0-5.7-.4-5-3.1.4-1.5 1.4-1.9 4.9-1.9 4 0 4.4.2 4.4 2.5m23 0c0 2.3-.3 2.5-5 2.5-4.2 0-5-.3-5-1.8 0-2.7.9-3.2 5.7-3.2 3.9 0 4.3.2 4.3 2.5m12 0c0 2.4-.3 2.5-5.5 2.5s-5.5-.1-5.5-2.5.3-2.5 5.5-2.5 5.5.1 5.5 2.5m8-1.6c0 .5.3 1.6.6 2.5.5 1.3-.2 1.6-3.5 1.6-3.7 0-4.1-.2-4.1-2.5 0-2.2.4-2.5 3.5-2.5 1.9 0 3.5.4 3.5.9M522 572c-.8.5-5.5 1-10.5 1-4.9 0-9.7-.5-10.5-1-1-.7 2.4-1 10.5-1s11.5.3 10.5 1m141 1c0 1.7-.7 2-4.5 2s-4.5-.3-4.5-2 .7-2 4.5-2 4.5.3 4.5 2m-140.9 4.3c-.1.4-.1 5.9-.1 12.2 0 9.6-.3 11.5-1.5 11.5s-1.5-2-1.5-11.8c0-6.5.3-12.2.7-12.6.8-.8 2.5-.3 2.4.7m-21.4 17.9c-.2 3.5-.3.7-.3-6.2s.1-9.7.3-6.3c.2 3.5.2 9.1 0 12.5m6.3-6.2c0 10-.2 12-1.5 12-1.2 0-1.5-2-1.5-12s.3-12 1.5-12c1.3 0 1.5 2 1.5 12m5-9.2c0 1.6.3 7 .6 12 .6 8.1.5 9.2-1 9.2-1.4 0-1.6-1.5-1.6-12 0-7.3.4-12 1-12s1 1.3 1 2.8m4.7 15.4c-.2 3.5-.3.7-.3-6.2s.1-9.7.3-6.3c.2 3.5.2 9.1 0 12.5m307.9-7.7c.8 5.7.1 7.5-3.1 7.5-2.3 0-2.5-.3-2.5-5 0-3.6.5-5.2 1.8-5.9 2.7-1.6 3-1.4 3.8 3.4M695 588.6c0 2.7-.4 3.4-2 3.4s-2-.7-2-3.3c0-3.8.6-4.8 2.6-4 .8.3 1.4 1.9 1.4 3.9m-58-.7c0 3.5-1.2 5.1-3.6 5.1-2 0-2.4-.5-2.4-2.8 0-3.5.6-4.2 3.7-4.2 1.6 0 2.3.6 2.3 1.9m37.8 1.3c.3 2.7.2 2.8-4.7 2.8-4.7 0-5.1-.2-5.1-2.4 0-2.9 1.3-3.6 6-3.3 3 .2 3.5.6 3.8 2.9m-22.8.3c0 2.2-.4 2.5-4 2.5s-4-.3-4-2.5c0-2.3.4-2.5 4-2.5s4 .2 4 2.5m11 0c0 2.3-.4 2.5-4.5 2.5s-4.5-.2-4.5-2.5.4-2.5 4.5-2.5 4.5.2 4.5 2.5m24-1.3c0 2.8-1.8 3.9-5.6 3.6-3.2-.2-4-.7-4.2-2.6-.3-2 0-2.2 4.7-2.2q5.1 0 5.1 1.2m13.5 1.8c.3 1.1 1.4 2 2.4 2 .9 0 2.2.5 2.8 1.1 1.7 1.7 17.6 8.9 19.8 8.9 1.1 0 2.7.5 3.5 1 1 .6-4.9.9-17.5.9-14.4 0-18.3-.3-16.1-1.1 2.8-1 2.8-1.2 2.2-6.3-.3-2.9-.9-6-1.2-6.9-.4-1.1 0-1.6 1.4-1.6 1.2 0 2.3.9 2.7 2m115.5 4c0 2.2-.4 4-1 4-.5 0-1-1.8-1-4s.5-4 1-4c.6 0 1 1.8 1 4m-5.7-.9c-.4 1.3-.9 1.7-1.5 1.1-1.1-1.1-.3-3.2 1.2-3.2.4 0 .6.9.3 2.1m19.2 1.9c-.3.5-1.3 1-2.1 1s-1.2-.5-.9-1c.3-.6 1.3-1 2.1-1s1.2.4.9 1m-182.3 1.7c1 .9 1.8 2.7 1.8 4v2.3l17.2-.2 17.2-.3.7-2.9c.5-1.6 1.4-3.3 2.1-3.7 1.8-1.2 5.8-1.1 5.8 0 0 .5-.9.7-2 .4-2.8-.7-5 1.4-5 4.8v2.8l-18.9.3-19 .3.6-2.7c1.1-5.4-5-8-8.1-3.6-.9 1.2-1.6 1.7-1.6 1.1 0-1.9 3-4.3 5.2-4.3 1.2 0 3 .7 4 1.7M801 599c0 1.6-.4 3-1 3-.5 0-1-1.4-1-3 0-1.7.5-3 1-3 .6 0 1 1.3 1 3"/><path d="M509 473.3c0 2.7.7 4.1 3.1 6.1 3.3 2.8 4.4 3.1 5.4 1.6.4-.6-.7-1.5-2.4-2.1-2.5-.9-3-1.7-3.3-4.7-.4-4.8-2.8-5.6-2.8-.9M490 347.5c0 .3 1.6 1.1 3.5 1.9l3.5 1.5V393c0 27.8.3 41.9 1 41.5.6-.3 1-4.6 1-9.4 0-7.4.4-9.8 2.6-14.7q5.4-12.15 5.4-27.6c0-8.2.2-8.9 2.5-10.4 2.4-1.5 2.5-2.1 2.5-10.5 0-7.6.3-9.2 2-10.9 1.1-1.1 2.7-2 3.5-2s1.5-.5 1.5-1c0-.6-5.5-1-14.5-1-8 0-14.5.2-14.5.5M257.2 483.1c.3.8 1.4 3.8 2.4 6.6 1 2.9 2.4 5.3 3 5.3 1.2 0 5.8-11.9 5-12.8-1-1-2.6 1.1-3.2 4.3-.9 5-2 5.1-3.6.3-.8-2.3-2-4.4-2.8-4.6-.8-.3-1.1.1-.8.9M269.2 488.2c.2 3.5.8 6.3 1.3 6.3.6 0 1.1-2.8 1.3-6.3.2-5.1 0-6.2-1.3-6.2s-1.5 1.1-1.3 6.2M274.2 483.2c-2 2-1.4 3.8 2.3 5.9 4.5 2.7 4.5 4.3 0 3.5-2.9-.6-3.4-.4-2.9.9.9 2.3 7.2 2.5 8.6.2.6-.9.8-.9.8 0 0 2 1.8 1.5 2.5-.7.4-1.1 1.5-2 2.7-2 1.1 0 2.2.8 2.5 2 .3 1.1 1.1 2 1.8 2 1 0 .8-1.6-.8-6.5-2.6-7.9-4.3-8.1-6.7-1-1.6 4.7-1.7 4.9-2.9 2.8-.6-1.3-2.3-2.6-3.6-2.9-3.8-.9-3.3-3.8.5-3.1 2.3.5 2.8.3 2.3-.8-.6-1.8-5.4-2-7.1-.3m14.4 5.5c-1 1-1.9-.5-1-1.8.6-1.1.8-1.1 1.2 0 .2.7.1 1.5-.2 1.8M729 491.5c0 1.9.2 3.5.4 3.5s.6-1.6.8-3.5 0-3.5-.4-3.5-.8 1.6-.8 3.5M786.3 506.5c0 2.2.2 3 .4 1.7.2-1.2.2-3 0-4-.3-.9-.5.1-.4 2.3M785.2 519.2c-.8.8-1.2 6.5-1.2 17.5 0 15.6.1 16.3 2 16.3s2-.7 2-16.9c0-9.4-.4-17.2-.8-17.5-.5-.3-1.4 0-2 .6M752.1 525.7c0 1.1.3 1.3.6.5.2-.6.9-1 1.4-.6.5.3.9 0 .9-.5 0-.6-.7-1.1-1.5-1.1s-1.5.8-1.4 1.7M594.9 630.4c-2.5 5.7-3.5 10.6-2.1 10.6.6 0 1.4-.9 1.7-2 .4-1.3 1.5-2 3-2 1.4 0 2.9.9 3.5 2 1.7 3.1 3.3 2.5 2.6-1.1-.9-4.6-4.3-11.9-5.6-11.9-.6 0-2 2-3.1 4.4m4.1 2c0 .3-.4.8-1 1.1-.5.3-1 .1-1-.4 0-.6.5-1.1 1-1.1.6 0 1 .2 1 .4M605.8 632.2c-.7 8.4-.4 9 4.6 8.6l4.1-.3.3-5.8c.4-6.9-.8-8.7-5.3-8.7h-3.3zm7-1.5c.2.8-.6 1.3-2.2 1.3-1.7 0-2.6-.5-2.6-1.6 0-1.9 4.1-1.6 4.8.3m0 6c-.2 1-1.2 1.8-2.3 1.8s-2.1-.8-2.3-1.8c-.3-1.3.3-1.7 2.3-1.7s2.6.4 2.3 1.7M617.4 627.4c-.3.7-.4 4-.2 7.2.3 5.5.5 5.9 2.9 6.2 1.4.2 3.7-.6 5.2-1.8 5.4-4.2 2.4-13-4.3-13-1.7 0-3.3.6-3.6 1.4m7.3 3.2c1.5 2.4 1.5 2.9.2 5.3-2 3.6-5.3 3.5-5.7-.3-.8-7.1 2.3-9.9 5.5-5M635 632.1c0 7.2 1 8.9 5.2 8.9 3.6 0 5-2.7 4.6-9.3-.4-6.9-2.2-6.2-2.8 1-.4 5-.8 5.8-2.5 5.8s-2-.8-2.3-5.5c-.5-8.1-2.2-8.8-2.2-.9M646.7 626.7c-.4.3-.7 3.7-.7 7.5 0 5.4.3 6.8 1.5 6.8.9 0 1.5-.9 1.5-2.4 0-3.7 1.7-4 3.6-.6 3.1 5.2 4.7 3.4 1.9-2.1-1.4-2.7-1.4-3.2.2-5.9 2.2-3.9.7-5.3-1.9-1.7-2.1 2.9-3.8 2.8-3.8-.4 0-1.9-1.1-2.5-2.3-1.2M664 631.9c0 8.2 3.3 11.1 9.1 8.1 1.6-.9 1.9-2.2 1.9-7.5 0-3.7-.4-6.5-1-6.5-.5 0-1 2.4-1 5.4 0 6-1.9 8.8-4.8 6.9-1.2-.7-1.8-2.7-2-6.7-.4-7.5-2.2-7.2-2.2.3M680.1 628.2c-.5 1.3-1.6 4-2.5 6.2-.9 2.1-1.6 4.5-1.6 5.2 0 2.2 1.6 1.6 2.8-1.1.7-1.5 2-2.5 3.2-2.5 1.3 0 2.4 1 3 2.5 1.1 3 3 3.3 3 .6 0-3.3-4.2-13.1-5.7-13.1-.7 0-1.7 1-2.2 2.2m2.9 4.3c0 .8-.4 1.5-1 1.5-.5 0-1-.7-1-1.5s.5-1.5 1-1.5c.6 0 1 .7 1 1.5M689.7 630.7c-.4 2.7-.5 5.7-.3 6.8.3 1.1.5 2.3.5 2.7.1 1.2 9.1.9 9.1-.2 0-.6-1.3-1-3-1-4 0-4.4-3.7-.5-4.2 3.8-.4 3.5-2.2-.3-2.6-2.5-.3-3.2-.8-3-2 .3-1.2 1.3-1.6 3.6-1.4 2.3.1 3.2-.2 3.2-1.3s-1.1-1.5-4.4-1.5h-4.3z"/></svg>